<svg width="28" height="28" viewBox="0 0 28 28" fill="none" xmlns="http://www.w3.org/2000/svg">
<path d="M0 22.1675V28H5.83254L23.0347 10.7979L17.2021 4.96535L0 22.1675ZM27.5451 6.28739C27.6893 6.1435 27.8037 5.97259 27.8818 5.78443C27.9598 5.59628 28 5.39458 28 5.19088C28 4.98717 27.9598 4.78547 27.8818 4.59732C27.8037 4.40916 27.6893 4.23825 27.5451 4.09436L23.9056 0.454851C23.7618 0.310665 23.5908 0.196273 23.4027 0.118224C23.2145 0.0401745 23.0128 0 22.8091 0C22.6054 0 22.4037 0.0401745 22.2156 0.118224C22.0274 0.196273 21.8565 0.310665 21.7126 0.454851L18.8663 3.30113L24.6989 9.13367L27.5451 6.28739Z" fill="orange"/>
</svg>
